<svg xmlns="http://www.w3.org/2000/svg" width="44" height="44" viewBox="0 0 44 44"><circle cx="22" cy="22" r="22" fill="#5cd076"/><g transform="translate(-1670.35 -189.157) rotate(6)"><path d="M7.26,20.086A10.561,10.561,0,0,1,7.1,16.207,13.851,13.851,0,0,1,8.152,13.02,14.538,14.538,0,0,0,9.109,10.7a4.621,4.621,0,0,0,.026-2.152A2.591,2.591,0,0,0,8.252,6.94a1.494,1.494,0,0,0-1.319-.39A2,2,0,0,0,5.516,7.835a9.558,9.558,0,0,0-.569,2.634L1.611,9.305a11.812,11.812,0,0,1,.444-2.759A8.1,8.1,0,0,1,3.528,3.668a5.022,5.022,0,0,1,2.852-1.8,4.689,4.689,0,0,1,4.066.7q1.745,1.27,2.373,4.562a10.324,10.324,0,0,1,.171,3.713,10.571,10.571,0,0,1-.714,2.416q-.448.985-.577,1.277a10.64,10.64,0,0,0-.8,2.614,9.107,9.107,0,0,0,.145,3.107l.142.739-3.564.963Zm3.579,8.825a1.808,1.808,0,0,1-1.633-.268,2.545,2.545,0,0,1-.937-1.655,3.043,3.043,0,0,1,.246-2,2.1,2.1,0,0,1,1.348-1.149,1.689,1.689,0,0,1,1.6.34,2.745,2.745,0,0,1,.921,1.671,3.005,3.005,0,0,1-.208,1.965,2.054,2.054,0,0,1-1.338,1.1Z" transform="translate(1692.84 13.951)" fill="#fff"/><path d="M6.3,19.6a10.573,10.573,0,0,1,.047-3.882A13.818,13.818,0,0,1,7.561,12.59a14.683,14.683,0,0,0,1.077-2.268A4.632,4.632,0,0,0,8.78,8.177a2.609,2.609,0,0,0-.8-1.651,1.5,1.5,0,0,0-1.3-.458A2.011,2.011,0,0,0,5.2,7.277a9.3,9.3,0,0,0-.7,2.6L1.227,8.541a12.027,12.027,0,0,1,.588-2.732,8.075,8.075,0,0,1,1.621-2.8A5.012,5.012,0,0,1,6.379,1.363a4.7,4.7,0,0,1,4.021.911q1.675,1.356,2.131,4.681a10.318,10.318,0,0,1-.024,3.717,10.572,10.572,0,0,1-.84,2.376q-.5.96-.643,1.245a10.694,10.694,0,0,0-.937,2.569,9.056,9.056,0,0,0-.018,3.11l.1.745-3.609.775Zm3.112,9A1.808,1.808,0,0,1,7.8,28.247a2.541,2.541,0,0,1-.849-1.7,3.052,3.052,0,0,1,.35-1.986,2.066,2.066,0,0,1,1.4-1.075,1.681,1.681,0,0,1,1.582.423,2.744,2.744,0,0,1,.833,1.717,3,3,0,0,1-.311,1.951A2.051,2.051,0,0,1,9.415,28.6Z" transform="translate(1696.166 14.146)"/><path d="M7.546,19.144a10.459,10.459,0,0,1,.587-3.837,14.034,14.034,0,0,1,1.638-2.928,14.44,14.44,0,0,0,1.382-2.1,4.645,4.645,0,0,0,.436-2.108,2.629,2.629,0,0,0-.56-1.746,1.484,1.484,0,0,0-1.22-.634,2.009,2.009,0,0,0-1.636.991A9.437,9.437,0,0,0,7.112,9.261L4.059,7.484A11.842,11.842,0,0,1,5.021,4.86,8.093,8.093,0,0,1,7.016,2.315,5.018,5.018,0,0,1,10.159,1.1a4.7,4.7,0,0,1,3.859,1.459Q15.49,4.13,15.477,7.486a10.3,10.3,0,0,1-.541,3.677A10.644,10.644,0,0,1,13.773,13.4q-.627.881-.81,1.144a10.673,10.673,0,0,0-1.285,2.413,9.066,9.066,0,0,0-.451,3.077v.753l-3.682.266ZM9.375,28.49a1.807,1.807,0,0,1-1.552-.575,2.527,2.527,0,0,1-.6-1.8A3.032,3.032,0,0,1,7.846,24.2a2.1,2.1,0,0,1,1.542-.871,1.694,1.694,0,0,1,1.508.639,2.734,2.734,0,0,1,.586,1.817,2.984,2.984,0,0,1-.579,1.889,2.054,2.054,0,0,1-1.527.817Z" transform="translate(1697.147 13.577)" fill="#fff"/></g></svg>