<svg xmlns="http://www.w3.org/2000/svg" width="44" height="44" viewBox="0 0 44 44">
  <circle id="Ellipse_1" data-name="Ellipse 1" cx="22" cy="22" r="22" fill="#5cd076"/>
  <g id="Group_1" data-name="Group 1" transform="translate(-1670.35 -189.157) rotate(6)">
    <path id="_" data-name="?" d="M7.26,20.086q-.45-2.333-.156-3.879T8.152,13.02q.693-1.4.957-2.321t.026-2.152q-.2-1.058-.883-1.607t-1.319-.39q-1,.251-1.417,1.285t-.569,2.634L1.611,9.305q.032-1.239.444-2.759T3.528,3.668q1.058-1.357,2.852-1.8,2.321-.57,4.066.7T12.819,7.13q.438,2.281.171,3.713t-.714,2.416q-.448.985-.577,1.277-.594,1.339-.8,2.614t.145,3.107l.142.739-3.564.963Zm3.579,8.825q-.915.256-1.633-.268t-.937-1.655q-.211-1.095.246-2t1.348-1.149q.889-.243,1.6.34t.921,1.671q.216,1.124-.208,1.965T10.838,28.911Z" transform="translate(1692.84 13.951)" fill="#fff"/>
    <path id="_2" data-name="?" d="M6.3,19.6q-.327-2.354.047-3.882t1.214-3.128q.765-1.364,1.077-2.268T8.78,8.177q-.148-1.067-.8-1.651t-1.3-.458q-1.01.2-1.482,1.209T4.5,9.877L1.227,8.541q.1-1.236.588-2.732t1.621-2.8q1.128-1.3,2.943-1.646Q8.725.918,10.4,2.274t2.131,4.681q.318,2.3-.024,3.717t-.84,2.376q-.5.96-.643,1.245-.663,1.306-.937,2.569t-.018,3.11l.1.745-3.609.775Zm3.112,9q-.927.208-1.617-.353t-.849-1.7q-.154-1.1.35-1.986T8.7,23.486q.9-.2,1.582.423t.833,1.717q.157,1.134-.311,1.951T9.415,28.6Z" transform="translate(1696.166 14.146)"/>
    <path id="_3" data-name="?" d="M7.546,19.144q0-2.376.587-3.837t1.638-2.928q.948-1.244,1.382-2.1t.436-2.108q0-1.077-.56-1.746t-1.22-.634q-1.027.056-1.636.991T7.112,9.261L4.059,7.484q.268-1.21.962-2.624T7.016,2.315q1.3-1.13,3.143-1.22,2.387-.117,3.859,1.459t1.459,4.932q-.005,2.323-.541,3.677T13.773,13.4q-.627.881-.81,1.144-.838,1.2-1.285,2.413t-.451,3.077v.753l-3.682.266Zm1.829,9.346q-.947.077-1.552-.575t-.6-1.8q0-1.115.623-1.917t1.542-.871q.919-.069,1.508.639t.586,1.817q0,1.145-.579,1.889T9.376,28.489Z" transform="translate(1697.147 13.577)" fill="#fff"/>
  </g>
</svg>
